<svg xmlns="http://www.w3.org/2000/svg" xmlns:xlink="http://www.w3.org/1999/xlink" width="1400" zoomAndPan="magnify" viewBox="0 0 1050 1049.999947" height="1400" preserveAspectRatio="xMidYMid meet" version="1.0"><defs><clipPath id="3d6d5865c3"><path d="M 684.230469 762.265625 L 841.425781 762.265625 L 841.425781 849.511719 L 684.230469 849.511719 Z M 684.230469 762.265625 " clip-rule="nonzero"/></clipPath><clipPath id="d2fcf3c6f2"><path d="M 584.140625 745.457031 L 734.949219 745.457031 L 734.949219 849.511719 L 584.140625 849.511719 Z M 584.140625 745.457031 " clip-rule="nonzero"/></clipPath><clipPath id="b8e8948c78"><path d="M 360 200.761719 L 658 200.761719 L 658 392 L 360 392 Z M 360 200.761719 " clip-rule="nonzero"/></clipPath><clipPath id="90a18d89fb"><path d="M 310 200.761719 L 605 200.761719 L 605 370 L 310 370 Z M 310 200.761719 " clip-rule="nonzero"/></clipPath><clipPath id="0cf1c7da1d"><path d="M 429.296875 759 L 581 759 L 581 849.511719 L 429.296875 849.511719 Z M 429.296875 759 " clip-rule="nonzero"/></clipPath><clipPath id="38483952ae"><path d="M 201.574219 343 L 287 343 L 287 468 L 201.574219 468 Z M 201.574219 343 " clip-rule="nonzero"/></clipPath><clipPath id="7d7e9aa1ba"><path d="M 464.230469 376 L 820 376 L 820 849.511719 L 464.230469 849.511719 Z M 464.230469 376 " clip-rule="nonzero"/></clipPath><clipPath id="d4e8db309e"><path d="M 815.226562 483.210938 L 847.695312 483.210938 L 847.695312 511.453125 L 815.226562 511.453125 Z M 815.226562 483.210938 " clip-rule="nonzero"/></clipPath></defs><rect x="-105" width="1260" fill="#ffffff" y="-104.999995" height="1259.999936" fill-opacity="1"/><rect x="-105" width="1260" fill="#ffffff" y="-104.999995" height="1259.999936" fill-opacity="1"/><rect x="-105" width="1260" fill="#ffffff" y="-104.999995" height="1259.999936" fill-opacity="1"/><path fill="#ffffff" d="M 841.34375 483.207031 C 843.289062 488.582031 842.707031 494.738281 839.042969 499.460938 C 834.1875 505.722656 825.214844 506.761719 817.910156 505.792969 C 814.585938 505.359375 814.617188 510.613281 817.910156 511.039062 C 819.667969 511.265625 821.507812 511.375 823.351562 511.335938 C 818.171875 516.144531 811.089844 517.984375 804.046875 515.996094 C 803.945312 515.96875 803.839844 515.949219 803.742188 515.9375 C 795.960938 503.324219 785.109375 493.1875 772.675781 485.292969 C 784.304688 484.453125 796.230469 479.027344 805.035156 472.570312 C 814.871094 465.34375 821.671875 453.070312 818.269531 441.332031 C 824.3125 444.09375 828.140625 449.726562 828.613281 455.988281 C 828.871094 459.292969 828.1875 462.765625 826.410156 466.097656 C 824.816406 469.082031 829.339844 471.726562 830.933594 468.746094 C 832.441406 465.917969 833.339844 462.976562 833.667969 460.039062 C 836.074219 462.601562 837.324219 466.175781 837.921875 469.636719 C 838.253906 471.621094 838.421875 474.453125 837.941406 477.042969 C 837.335938 480.253906 835.738281 483.070312 832.222656 483.355469 C 828.878906 483.621094 828.851562 488.871094 832.222656 488.601562 C 836.597656 488.246094 839.554688 486.183594 841.34375 483.207031 " fill-opacity="1" fill-rule="nonzero"/><path stroke-linecap="round" transform="matrix(0.039288, 0, 0, -0.0393264, 202.914325, 849.535629)" fill="none" stroke-linejoin="round" d="M 16250.475169 9315.372546 C 16299.989312 9178.696005 16285.174839 9022.153688 16192.012688 8902.06507 C 16068.426184 8742.840872 15840.044689 8716.41939 15654.11809 8741.052952 C 15569.407148 8752.078458 15570.202556 8618.481112 15654.11809 8607.654264 C 15698.760359 8601.893189 15745.59 8599.11198 15792.519066 8600.105269 C 15660.680205 8477.831416 15480.520314 8431.047513 15301.155831 8481.605913 C 15298.570755 8482.301215 15295.886254 8482.79786 15293.400604 8483.095847 C 15095.443461 8803.828806 14819.138639 9061.587254 14502.665717 9262.330924 C 14798.656885 9283.686633 15102.204428 9421.65445 15326.310606 9585.94442 C 15576.665245 9769.603522 15749.765891 10081.794198 15663.165855 10380.277487 C 15816.977859 10309.952639 15914.415328 10166.81972 15926.545299 10007.496194 C 15933.007988 9923.563289 15915.60844 9835.160584 15870.369615 9750.532377 C 15829.903238 9674.645111 15945.038533 9607.30013 15985.50491 9683.187395 C 16023.883342 9755.002177 16046.751319 9829.896154 16055.103102 9904.492144 C 16116.349511 9839.431726 16148.165827 9748.446471 16163.378003 9660.54041 C 16171.928638 9610.081338 16176.203956 9537.96857 16163.875133 9472.113522 C 16148.464105 9390.465181 16107.798876 9318.849057 16018.414912 9311.598049 C 15933.20684 9304.843685 15932.510858 9171.444997 16018.414912 9178.199361 C 16129.672593 9187.238289 16205.037493 9239.683938 16250.475169 9315.372546 Z M 16250.475169 9315.372546 " stroke="#ffffff" stroke-width="100.489998" stroke-opacity="1" stroke-miterlimit="10"/><path fill="#ffffff" d="M 813.347656 560.898438 C 816.425781 584.320312 814.175781 608.289062 810.121094 631.445312 C 806.152344 654.121094 799.371094 676.003906 794.4375 698.4375 C 791.601562 711.3125 790.539062 724.324219 790.527344 737.484375 C 790.515625 750.789062 790.054688 764.136719 790.253906 777.433594 C 790.476562 792.078125 790.875 806.5 786.835938 820.730469 C 786.488281 821.960938 786.136719 823.269531 785.742188 824.621094 C 785.34375 824.742188 784.949219 824.847656 784.542969 824.933594 C 781.019531 825.746094 777.222656 825.585938 773.777344 824.53125 C 770.652344 823.574219 767.984375 821.429688 764.800781 820.660156 C 760.046875 819.511719 755.441406 821.558594 750.933594 822.773438 C 746.933594 823.847656 743.675781 823.632812 740.972656 822.367188 C 741.484375 818.988281 742.351562 815.617188 742.957031 812.449219 C 746.875 791.769531 748.03125 770.675781 746.816406 749.683594 C 745.628906 729.039062 742.796875 708.03125 738.199219 687.859375 C 736.136719 678.808594 728.902344 668.40625 725.542969 665.71875 C 722.421875 663.21875 719.160156 662.691406 715.359375 663.21875 C 694.789062 669.679688 673.839844 676.59375 652.585938 681.703125 C 639.570312 684.824219 626.453125 687.277344 613.234375 688.511719 C 584.734375 691.195312 555.0625 687.3125 527.199219 681.023438 C 527.429688 680.984375 524.46875 679.574219 524.46875 682.960938 C 524.46875 689.875 522.414062 696.859375 522.828125 703.605469 C 523.996094 722.546875 526.757812 741.316406 528.355469 760.214844 C 529.816406 777.632812 530.390625 795.691406 526.15625 812.792969 C 525.878906 813.910156 525.59375 815.097656 525.277344 816.332031 C 520.410156 817.597656 515.328125 814.445312 510.167969 813.980469 C 504.460938 813.457031 500.277344 817.320312 494.945312 818.503906 C 491.570312 819.257812 488.214844 818.605469 485.382812 816.996094 C 485.175781 811.480469 485.570312 805.929688 486.074219 800.464844 C 487.503906 784.84375 488.699219 769.519531 488.148438 753.8125 C 487.0625 723.238281 479.578125 693.28125 470.183594 664.1875 C 470.222656 663.664062 461.433594 659.851562 460.3125 659.246094 C 441.46875 649.0625 427.710938 631.367188 418.585938 611.777344 C 418.464844 611.523438 418.347656 611.273438 418.238281 611.015625 C 411.042969 595.316406 407.015625 578.324219 403.15625 561.570312 C 396.445312 532.453125 390.445312 498.421875 365.109375 479.214844 C 354.382812 471.082031 342.539062 467.222656 330.179688 465.324219 C 329.460938 464.640625 328.492188 464.601562 327.652344 464.957031 C 301.605469 461.5 273.4375 465.988281 248.578125 457.113281 C 245.320312 455.957031 242.121094 454.574219 238.992188 452.90625 C 236.320312 451.480469 233.773438 449.863281 231.375 448.058594 C 238.867188 448.984375 246.277344 445.804688 251.203125 439.203125 C 253.226562 436.496094 248.675781 433.878906 246.683594 436.554688 C 241.628906 443.320312 232.941406 444.824219 225.699219 440.707031 C 224.800781 440.191406 223.933594 440.261719 223.242188 440.652344 C 219.570312 436.613281 216.449219 432.058594 213.984375 427.089844 C 212.285156 423.652344 210.617188 419.511719 209.480469 415.167969 C 210.132812 415.542969 210.804688 415.878906 211.484375 416.144531 C 217.765625 418.613281 228.3125 417.113281 233.871094 413.328125 C 239.230469 409.683594 236.804688 403.308594 232.390625 400.09375 C 225.996094 395.425781 217.683594 394.125 209.964844 394.910156 C 210.953125 392.789062 212.363281 390.84375 214.269531 389.183594 C 218.523438 385.476562 224.03125 383.472656 229.292969 381.695312 C 235.953125 379.441406 242.613281 377.285156 249.160156 374.722656 C 261.742188 369.78125 273.960938 363.941406 285.6875 357.203125 C 297.730469 350.257812 308.683594 342.007812 319.957031 333.96875 C 320.597656 333.769531 321.050781 333.414062 321.355469 332.96875 C 321.652344 332.761719 321.949219 332.542969 322.246094 332.335938 C 325.796875 329.828125 329.402344 327.597656 333.082031 325.648438 C 333.09375 325.636719 333.113281 325.628906 333.121094 325.628906 C 333.238281 325.582031 333.347656 325.519531 333.449219 325.453125 C 343.140625 320.363281 353.394531 317.21875 364.765625 316.105469 C 365.089844 316.0625 365.425781 316.035156 365.75 316.007812 C 381.691406 314.59375 397.382812 317.359375 411.695312 323.582031 C 420.816406 327.535156 430.902344 330.628906 438.601562 337.175781 C 440.128906 338.875 438.738281 339.628906 440.574219 340.140625 C 444.226562 335.714844 451.339844 331.457031 456.078125 328.382812 C 469.777344 319.515625 487.1875 316.679688 503.621094 322.011719 C 507.066406 323.128906 510.402344 324.582031 513.570312 326.347656 C 516.039062 327.722656 520.863281 329.964844 522.296875 332.457031 C 525 337.1875 518.890625 345.734375 516.238281 349.449219 C 509.082031 359.417969 499.269531 366.214844 487.652344 370.054688 C 480.960938 372.269531 473.144531 374.722656 465.25 375.707031 C 464.363281 375.816406 466.234375 380.636719 466.234375 380.648438 C 469.53125 390.683594 470.6875 399.636719 474.25 409.59375 C 478.039062 420.132812 483.617188 428.5625 490.890625 437.097656 C 507.6875 456.796875 529.855469 470.445312 555.675781 474.144531 C 582.582031 478.011719 609.832031 478.929688 636.894531 476.28125 C 658.191406 474.1875 679.445312 470.796875 700.878906 469.878906 C 754.433594 467.585938 778.03125 494.726562 785.027344 501.175781 C 791.347656 507.003906 796.203125 513.359375 800.359375 520.617188 C 807.363281 532.871094 811.480469 546.75 813.347656 560.898438 " fill-opacity="1" fill-rule="nonzero"/><path stroke-linecap="round" transform="matrix(0.0376388, 0, 0, -0.0376756, 202.914325, 849.535629)" fill="none" stroke-linejoin="round" d="M 16218.17512 7661.109528 C 16299.955665 7039.437911 16240.176993 6403.250947 16132.450844 5788.629642 C 16027.007908 5186.761107 15846.841632 4605.939827 15715.76444 4010.499518 C 15640.418405 3668.766755 15612.189588 3323.405155 15611.87824 2974.103674 C 15611.566893 2620.965995 15599.320568 2266.687824 15604.613471 1913.757507 C 15610.529069 1525.057225 15621.114876 1142.266763 15513.803856 764.556673 C 15504.567221 731.89714 15495.226804 697.163986 15484.74478 661.290341 C 15474.158973 658.076228 15463.676949 655.276839 15452.883578 652.995856 C 15359.271837 631.430196 15258.395328 635.68112 15166.859236 663.675005 C 15083.833303 689.076864 15012.949912 745.997764 14928.367242 766.422932 C 14802.064041 796.905163 14679.704571 742.576289 14559.939662 710.331481 C 14453.666467 681.81919 14367.111931 687.521648 14295.294498 721.114311 C 14308.889995 810.798425 14331.929692 900.275177 14348.015966 984.360514 C 14452.10973 1533.248028 14482.829326 2093.125735 14450.552994 2650.307734 C 14419.003139 3198.262119 14343.760887 3755.858843 14221.608982 4291.26782 C 14166.811866 4531.496828 13974.60683 4807.599483 13885.353951 4878.93205 C 13802.4318 4945.287926 13715.773482 4959.284869 13614.79319 4945.287926 C 13068.274982 4773.799458 12511.68988 4590.283988 11947.009749 4454.669165 C 11601.206736 4371.828001 11252.705379 4306.716297 10901.50568 4273.953083 C 10144.309166 4202.724197 9355.977926 4305.783168 8615.697946 4472.709669 C 8621.821108 4473.74648 8543.154036 4511.175341 8543.154036 4421.283865 C 8543.154036 4237.768395 8488.564485 4052.386665 8499.565421 3873.32948 C 8530.596364 3370.580036 8603.970533 2872.392558 8646.417541 2370.783605 C 8685.232165 1908.469773 8700.48818 1429.152247 8587.98804 975.236581 C 8580.619489 945.583798 8573.043372 914.064757 8564.636997 881.301543 C 8435.324105 847.708881 8300.303181 931.379494 8163.206608 943.717539 C 8011.580496 957.610801 7900.429528 855.070236 7758.766529 823.654876 C 7669.09852 803.644432 7579.949424 820.959168 7504.707172 863.675764 C 7499.206704 1010.073416 7509.688728 1157.404197 7523.07666 1302.453996 C 7561.061024 1717.074542 7592.818444 2123.815328 7578.185123 2540.716857 C 7549.333611 3352.228489 7350.4865 4147.358513 7100.889787 4919.575024 C 7101.927611 4933.468286 6868.417173 5034.660997 6838.63162 5050.731561 C 6337.98524 5321.028076 5972.463567 5790.703263 5730.027841 6310.663763 C 5726.810586 6317.403032 5723.697114 6324.038619 5720.791206 6330.881569 C 5529.623994 6747.575736 5422.624322 7198.588333 5320.087294 7643.276386 C 5141.789102 8416.114983 4982.379309 9319.38435 4309.246552 9829.184106 C 4024.260035 10045.048066 3709.591747 10147.48495 3381.22418 10197.873944 C 3362.128215 10216.018129 3336.390176 10217.054939 3314.076956 10207.619963 C 2622.055799 10299.377699 1873.68079 10180.248164 1213.209489 10415.811525 C 1126.654953 10446.501118 1041.657153 10483.204212 958.527437 10527.476023 C 887.540264 10565.319609 819.874128 10608.243567 756.151724 10656.144215 C 955.2064 10631.571804 1152.081645 10715.968185 1282.951273 10891.189171 C 1336.710565 10963.040143 1215.804049 11032.506451 1162.875016 10961.484927 C 1028.580569 10781.909337 797.768473 10741.99213 605.355872 10851.271964 C 581.485916 10864.957863 558.44622 10863.091604 540.076732 10852.723499 C 442.52126 10959.929711 359.599109 11080.821824 294.112404 11212.704128 C 248.967052 11303.943458 204.65196 11413.845378 174.451277 11529.138713 C 191.782941 11519.185332 209.633516 11510.268761 227.691657 11503.218449 C 394.573783 11437.692021 674.786309 11477.505547 822.468689 11577.972491 C 964.858165 11674.706917 900.409284 11843.914401 783.135153 11929.243911 C 613.243336 12053.142774 392.394353 12087.668566 187.320297 12066.828674 C 213.577248 12123.127487 251.042701 12174.760654 301.68852 12218.825103 C 414.707572 12317.218426 561.04078 12370.406808 700.835696 12417.581689 C 877.784717 12477.405658 1054.733738 12534.637602 1228.673069 12602.652375 C 1562.956234 12733.808912 1887.587634 12888.812092 2199.14245 13067.661915 C 2519.103642 13252.006834 2810.109539 13470.981226 3109.625594 13684.35684 C 3126.645911 13689.644574 3138.684671 13699.079551 3146.7797 13710.899191 C 3154.667163 13716.394287 3162.554627 13722.200426 3170.442091 13727.695522 C 3264.780308 13794.258761 3360.571479 13853.460644 3458.334516 13905.197491 C 3458.645863 13905.508535 3459.164775 13905.715897 3459.37234 13905.715897 C 3462.485812 13906.960069 3465.39172 13908.618966 3468.090063 13910.381544 C 3725.574239 14045.477961 3998.003084 14128.941212 4300.1137 14158.490313 C 4308.72764 14159.630805 4317.652928 14160.356572 4326.266869 14161.08234 C 4749.802913 14198.614882 5166.696882 14125.208694 5546.955658 13960.04477 C 5789.287601 13855.119541 6057.253802 13773.004144 6261.808946 13599.234693 C 6302.387871 13554.133433 6265.44133 13534.122989 6314.219066 13520.540771 C 6411.255626 13638.011408 6600.243408 13751.02376 6726.13148 13832.620752 C 7090.096416 14067.976751 7552.654648 14143.249198 7989.267277 14001.724555 C 8080.803369 13972.071773 8169.433553 13933.50242 8253.601093 13886.638582 C 8319.19158 13850.14285 8447.362865 13790.629924 8485.451012 13724.481409 C 8557.268445 13598.92365 8394.952745 13372.069497 8324.484484 13273.468812 C 8134.355096 13008.874755 7873.653664 12828.469717 7565.004756 12726.551238 C 7387.225476 12667.764079 7179.556859 12602.652375 6969.812595 12576.524749 C 6946.253986 12573.621679 6995.965764 12445.679255 6995.965764 12445.368212 C 7083.558124 12179.011577 7114.277719 11941.374595 7208.927283 11677.091581 C 7309.596228 11397.36009 7457.797519 11173.616369 7651.04038 10947.07326 C 8097.304773 10424.209691 8686.269989 10061.948078 9372.271766 9963.762118 C 10087.125054 9861.221553 10811.111195 9836.752823 11530.11578 9907.04858 C 12095.937517 9962.621626 12660.617648 10052.616783 13230.07177 10076.981832 C 14652.928707 10137.842612 15279.878288 9417.466629 15465.752597 9246.289205 C 15633.672548 9091.597068 15762.674092 8922.907989 15873.098584 8730.268585 C 16059.180458 8405.02111 16168.567125 8036.642315 16218.17512 7661.109528 Z M 16218.17512 7661.109528 " stroke="#ffffff" stroke-width="104.889999" stroke-opacity="1" stroke-miterlimit="10"/><path fill="#b37c7a" d="M 785.5 825.46875 C 783.476562 832.375 780.625 840.03125 774.140625 843.09375 C 768.859375 845.605469 762.851562 843.828125 757.726562 841.730469 C 757.699219 841.722656 757.667969 841.703125 757.648438 841.691406 C 754.796875 840.207031 753.097656 840.238281 750.109375 840.496094 C 746.617188 840.785156 743.632812 838.332031 742.101562 835.042969 C 740.417969 831.386719 739.824219 822.625 740.320312 818.695312 C 748.046875 817.351562 754.078125 819.03125 761.144531 820.710938 C 764.777344 821.570312 769.25 825.066406 774.917969 825.605469 C 779.953125 826.089844 784.804688 825.648438 785.5 825.46875 " fill-opacity="1" fill-rule="nonzero"/><g clip-path="url(#3d6d5865c3)"><path stroke-linecap="butt" transform="matrix(0.0357411, 0, 0, -0.0357761, 202.914325, 849.535677)" fill="none" stroke-linejoin="miter" d="M 16300.046285 672.71042 C 16243.432558 479.669313 16163.648735 265.664465 15982.222508 180.062525 C 15834.349203 109.855833 15666.25671 159.53553 15522.973708 218.168491 C 15522.208657 218.386863 15521.334314 218.932794 15520.787849 219.260352 C 15441.004026 260.751088 15393.352318 259.877599 15309.852537 252.671313 C 15212.144677 244.591538 15128.535602 313.160439 15085.802075 405.095174 C 15038.696831 507.293408 15022.084309 752.197935 15035.855216 862.039199 C 15252.145881 899.599234 15420.894131 852.64919 15618.605002 805.699147 C 15720.138114 781.678195 15845.387787 683.956593 16003.971797 668.888905 C 16144.850355 655.240637 16280.482854 667.687857 16300.046285 672.71042 Z M 16300.046285 672.71042 " stroke="#b37c7a" stroke-width="110.458" stroke-opacity="1" stroke-miterlimit="10"/></g><path fill="#ffffff" d="M 711.261719 670.035156 C 712.839844 683.511719 715.054688 697.816406 713.324219 711.394531 C 712.40625 718.59375 709.304688 724.542969 705.683594 730.695312 C 699.929688 740.496094 695.035156 750.625 691.027344 761.273438 C 685.597656 775.726562 682.558594 790.230469 679.183594 805.1875 C 678.679688 805.34375 678.167969 805.480469 677.644531 805.601562 C 670.738281 807.113281 665.625 802.53125 659.535156 800.40625 C 655.351562 798.953125 652.21875 799.25 648.421875 801.253906 C 645.765625 802.660156 643.277344 802.886719 641.039062 802.292969 C 641.660156 792.265625 643.507812 782.683594 646.671875 773.140625 C 651.242188 759.386719 655.773438 745.625 660.695312 731.980469 C 662.535156 726.875 663.835938 722.289062 662.910156 716.847656 C 661.144531 706.550781 658.230469 696.414062 656.128906 686.171875 C 674.742188 681.59375 693.140625 675.71875 711.261719 670.007812 C 711.261719 670.015625 711.261719 670.027344 711.261719 670.035156 " fill-opacity="1" fill-rule="nonzero"/><path stroke-linecap="round" transform="matrix(0.0335881, 0, 0, -0.033621, 202.914325, 849.535629)" fill="none" stroke-linejoin="round" d="M 15134.739446 5338.946467 C 15181.724069 4938.108272 15247.665359 4512.63886 15196.145092 4108.779855 C 15168.814927 3894.650929 15076.473861 3717.701198 14968.665085 3534.709848 C 14797.357289 3243.201723 14651.635178 2941.934059 14532.312843 2625.213792 C 14370.657828 2195.329351 14280.177539 1763.934505 14179.695573 1319.062201 C 14164.693058 1314.414801 14149.457945 1310.348327 14133.873936 1306.746592 C 13928.258061 1261.783003 13776.02323 1398.06799 13594.713757 1461.272621 C 13470.157986 1504.493435 13376.886531 1495.663376 13263.84432 1436.06048 C 13184.761291 1394.35007 13110.6791 1387.495156 13044.040019 1405.155274 C 13062.531492 1703.402128 13117.540716 1988.403894 13211.742559 2272.243811 C 13347.811888 2681.33114 13482.718232 3090.650839 13629.254432 3496.484989 C 13684.03106 3648.338763 13722.758484 3784.739934 13695.195723 3946.585617 C 13642.628768 4252.849236 13555.870034 4554.349269 13493.301402 4858.986298 C 14047.464097 4995.155099 14595.230371 5169.897315 15134.739446 5339.759762 C 15134.739446 5339.527392 15134.739446 5339.178837 15134.739446 5338.946467 Z M 15134.739446 5338.946467 " stroke="#ffffff" stroke-width="117.539001" stroke-opacity="1" stroke-miterlimit="10"/><path fill="#b37c7a" d="M 678.996094 806.027344 C 677.832031 811.203125 676.429688 817.585938 672.148438 821.121094 C 666.730469 825.628906 658.527344 823.464844 652.488281 821.703125 C 652.449219 821.699219 652.417969 821.6875 652.378906 821.6875 C 652.355469 821.675781 652.347656 821.667969 652.339844 821.675781 C 651.746094 821.527344 651.214844 821.585938 650.769531 821.785156 C 646.484375 822.851562 641.667969 823.464844 640.613281 818.175781 C 639.722656 813.722656 640.691406 807.941406 640.96875 803.378906 C 646.945312 801.882812 650.296875 800.574219 659.707031 802.558594 C 666.089844 803.902344 671.464844 807.601562 678.996094 806.027344 " fill-opacity="1" fill-rule="nonzero"/><g clip-path="url(#d2fcf3c6f2)"><path stroke-linecap="butt" transform="matrix(0.0335881, 0, 0, -0.033621, 202.914325, 849.535677)" fill="none" stroke-linejoin="miter" d="M 14174.113242 1294.083718 C 14139.456267 1140.138631 14097.70508 950.292387 13970.241845 845.144987 C 13808.935726 711.06753 13564.708725 775.434004 13384.911133 827.833427 C 13383.748147 827.949612 13382.817759 828.298166 13381.654773 828.298166 C 13381.07328 828.646721 13380.724384 828.879091 13380.491787 828.646721 C 13362.814404 833.06175 13346.997798 831.318976 13333.739761 825.393542 C 13206.160228 793.675045 13062.764089 775.434004 13031.363474 932.748456 C 13004.8474 1065.199324 13033.689446 1237.153082 13041.946644 1372.857129 C 13219.883459 1417.355973 13319.667634 1456.277939 13599.830894 1397.255973 C 13789.86276 1357.288343 13949.889595 1247.261174 14174.113242 1294.083718 Z M 14174.113242 1294.083718 " stroke="#b37c7a" stroke-width="117.539001" stroke-opacity="1" stroke-miterlimit="10"/></g><path fill="#d3af9a" d="M 580.734375 279.128906 C 590.695312 287.636719 598.457031 298.511719 601.601562 311.109375 C 588.421875 298.414062 570.585938 290.078125 553.199219 285.609375 C 530.160156 279.703125 504.746094 280.53125 483.625 292.277344 C 470.261719 299.707031 459.789062 311.078125 452.167969 324.226562 C 452.070312 324.394531 451.992188 324.574219 451.933594 324.742188 C 447.621094 327.761719 443.710938 331.320312 440.285156 335.320312 C 432.90625 329.078125 424.78125 323.835938 416.117188 319.789062 C 430.21875 288.703125 460.144531 261.039062 494.480469 255.300781 C 523.816406 250.390625 558.113281 259.824219 580.734375 279.128906 " fill-opacity="1" fill-rule="nonzero"/><g clip-path="url(#b8e8948c78)"><path stroke-linecap="butt" transform="matrix(0.0367219, 0, 0, -0.0367578, 202.914325, 849.535629)" fill="none" stroke-linejoin="miter" d="M 10288.79448 15518.088209 C 10560.047896 15286.73844 10771.412812 14990.776517 10857.043793 14648.055798 C 10498.138293 14993.539537 10012.435118 15220.319696 9538.858566 15341.786295 C 8911.571745 15502.46652 8219.503227 15480.043552 7644.339611 15160.383421 C 7280.434539 14958.2579 6995.246143 14648.905958 6787.710687 14291.201171 C 6785.05134 14286.631561 6782.923862 14281.743141 6781.328254 14277.173532 C 6663.785107 14195.026829 6557.411218 14098.214868 6464.121318 13989.394398 C 6263.074669 14159.213843 6041.816981 14301.93444 5805.879696 14411.92388 C 6189.995807 15257.726732 7004.926167 16010.330804 7939.952647 16166.44142 C 8738.714176 16300.022797 9672.783292 16043.274501 10288.79448 15518.088209 Z M 10288.79448 15518.088209 " stroke="#d3af9a" stroke-width="107.509003" stroke-opacity="1" stroke-miterlimit="10"/></g><path fill="#d3af9a" d="M 513.246094 214.65625 C 527.160156 219.820312 539.914062 228.507812 548.6875 240.460938 C 525.1875 231.785156 501.609375 225.265625 476.105469 228.917969 C 462.136719 230.925781 449.109375 235.203125 437.59375 243.480469 C 426.84375 251.230469 417.644531 261.109375 410.511719 272.273438 C 402.75 284.421875 397.421875 298.402344 397.234375 312.945312 C 397.234375 313.003906 397.234375 313.074219 397.234375 313.132812 C 391.707031 311.78125 386.042969 310.910156 380.277344 310.554688 C 375.777344 310.277344 371.167969 310.285156 366.5625 310.617188 C 363.855469 276.875 387.535156 241.96875 415.820312 225.601562 C 444.796875 208.824219 481.414062 202.828125 513.246094 214.65625 " fill-opacity="1" fill-rule="nonzero"/><g clip-path="url(#90a18d89fb)"><path stroke-linecap="butt" transform="matrix(0.039634, 0, 0, -0.0396727, 202.914325, 849.535629)" fill="none" stroke-linejoin="miter" d="M 7829.450108 16001.93366 C 8180.514117 15871.66863 8502.306365 15652.787933 8723.569335 15351.494666 C 8130.742268 15570.178439 7535.845481 15734.51127 6892.359542 15642.449438 C 6540.112836 15591.840046 6211.322962 15484.024318 5920.773636 15275.285192 C 5649.64026 15080.133801 5417.535897 14831.123778 5237.470219 14549.719804 C 5041.733801 14243.404983 4907.300531 13891.108476 4902.569742 13524.633463 C 4902.569742 13523.058073 4902.569742 13521.28576 4902.569742 13519.808832 C 4763.110008 13553.876633 4620.20074 13575.932088 4474.728961 13584.793654 C 4361.190011 13591.784446 4244.989993 13591.48906 4128.691416 13583.316727 C 4060.390642 14433.731743 4657.751382 15313.389929 5371.509257 15725.945089 C 6102.514802 16148.937205 7026.39858 16299.977686 7829.450108 16001.93366 Z M 7829.450108 16001.93366 " stroke="#d3af9a" stroke-width="99.602997" stroke-opacity="1" stroke-miterlimit="10"/></g><path fill="#b37c7a" d="M 524.949219 817.300781 C 524.980469 817.289062 525 817.289062 525.027344 817.28125 C 523.429688 823.414062 521.179688 830.398438 516.894531 834.394531 C 513.351562 837.679688 507.992188 836.910156 503.367188 836.058594 C 502.800781 835.554688 502.011719 835.300781 501.066406 835.535156 C 500.988281 835.554688 500.90625 835.578125 500.820312 835.597656 C 500.710938 835.578125 500.601562 835.554688 500.492188 835.535156 C 499.652344 835.398438 498.933594 835.617188 498.390625 836.039062 C 495.835938 836.367188 493.199219 836.1875 490.871094 834.996094 C 487.226562 833.117188 486.753906 828.582031 486.140625 824.890625 C 485.757812 822.566406 485.53125 820.226562 485.410156 817.871094 C 485.699219 818.019531 485.984375 818.160156 486.28125 818.289062 C 491.796875 820.699219 496.476562 818.910156 501.675781 816.617188 C 506.996094 814.277344 511.074219 814.679688 516.5 816.242188 C 519.226562 817.023438 522.089844 817.902344 524.949219 817.300781 " fill-opacity="1" fill-rule="nonzero"/><g clip-path="url(#0cf1c7da1d)"><path stroke-linecap="butt" transform="matrix(0.0335881, 0, 0, -0.033621, 202.914325, 849.535677)" fill="none" stroke-linejoin="miter" d="M 9587.76276 958.77389 C 9588.693149 959.122445 9589.274642 959.122445 9590.088732 959.354815 C 9542.522616 776.944409 9475.534638 569.20568 9347.955105 450.348453 C 9242.4723 352.636892 9082.91066 375.525332 8945.21315 400.853656 C 8928.349858 415.841517 8904.857546 423.39354 8876.713292 416.422442 C 8874.38732 415.841517 8871.94505 415.144407 8869.386482 414.563482 C 8866.130122 415.144407 8862.873762 415.841517 8859.617402 416.422442 C 8834.613209 420.488916 8813.214271 413.982557 8797.04877 401.43458 C 8720.989504 391.675043 8642.487968 397.019551 8573.174019 432.455968 C 8464.667451 488.340939 8450.595324 623.231691 8432.336448 733.02649 C 8420.939188 802.156548 8414.193871 871.751346 8410.588615 941.810884 C 8419.19471 937.395855 8427.684505 933.213196 8436.523197 929.379092 C 8600.73678 857.692964 8740.06247 910.905681 8894.855869 979.10626 C 9053.254524 1048.701058 9174.670233 1036.734006 9336.208949 990.260017 C 9417.385352 967.023023 9502.632206 940.881404 9587.76276 958.77389 Z M 9587.76276 958.77389 " stroke="#b37c7a" stroke-width="117.539001" stroke-opacity="1" stroke-miterlimit="10"/></g><path fill="#e787b3" d="M 447.421875 356.75 C 458.78125 344.640625 479.964844 337.664062 495.882812 342.566406 C 481.414062 350.714844 464.082031 356.445312 447.421875 356.75 " fill-opacity="1" fill-rule="nonzero"/><path stroke-linecap="butt" transform="matrix(0.0335881, 0, 0, -0.033621, 202.914325, 849.535629)" fill="none" stroke-linejoin="miter" d="M 7279.585004 14657.098382 C 7617.781251 15017.271833 8248.468406 15224.778214 8722.385087 15078.966059 C 8291.615176 14836.604182 7775.598413 14666.160811 7279.585004 14657.098382 Z M 7279.585004 14657.098382 " stroke="#e787b3" stroke-width="117.539001" stroke-opacity="1" stroke-miterlimit="10"/><path fill="#ffffff" d="M 464.261719 664.355469 C 462.136719 678.660156 460.617188 693.371094 454.242188 706.53125 C 450.058594 715.15625 444.292969 722.742188 437.167969 729.125 C 432.351562 733.433594 427.605469 737.515625 423.960938 742.925781 C 417.746094 752.167969 414.328125 763.308594 411.367188 773.917969 C 411.042969 775.074219 410.746094 776.398438 410.429688 777.78125 C 408.496094 778.195312 406.445312 778.179688 404.390625 777.625 C 400 776.4375 396.335938 773.445312 391.976562 772.179688 C 387.355469 770.835938 382.707031 772.761719 378.089844 771.242188 C 376.222656 770.628906 374.535156 769.683594 373.085938 768.484375 C 373.210938 754.527344 377.535156 740.792969 384.1875 728.589844 C 390.523438 716.945312 401.066406 708.023438 406.550781 695.984375 C 412.109375 683.789062 414.191406 670.136719 415.40625 656.878906 C 416.511719 644.984375 416.867188 633.039062 417.605469 621.105469 C 428.335938 639.886719 444.609375 655.011719 464.261719 664.355469 " fill-opacity="1" fill-rule="nonzero"/><path stroke-linecap="round" transform="matrix(0.0335881, 0, 0, -0.033621, 202.914325, 849.535629)" fill="none" stroke-linejoin="round" d="M 7780.948147 5507.879434 C 7717.681724 5082.410022 7672.557878 4644.857372 7482.64231 4253.43016 C 7358.08654 3996.893715 7186.429848 3771.262476 6974.301252 3581.416212 C 6830.905113 3453.264175 6689.602348 3331.967051 6581.095781 3170.934663 C 6396.064753 2896.040991 6294.303502 2564.681416 6206.149185 2249.122999 C 6196.496403 2214.732243 6187.657712 2175.345534 6178.237528 2134.216049 C 6120.669735 2121.900441 6059.612984 2122.365181 5998.439936 2138.863449 C 5867.720341 2174.183684 5758.63228 2263.181382 5628.843074 2300.825317 C 5491.261863 2340.792951 5352.866563 2283.513754 5215.401651 2328.709713 C 5159.810934 2346.950755 5109.56995 2375.067522 5066.42318 2410.736312 C 5070.144735 2825.86526 5198.887254 3234.371664 5396.943722 3597.333555 C 5585.580005 3943.680993 5899.469851 4209.047496 6062.753046 4567.129618 C 6228.245914 4929.975323 6290.233052 5335.925658 6326.401908 5730.257494 C 6359.314404 6084.040771 6369.897574 6439.334452 6391.878004 6794.279579 C 6711.350181 6235.662175 7195.850032 5785.793916 7780.948147 5507.879434 Z M 7780.948147 5507.879434 " stroke="#ffffff" stroke-width="117.539001" stroke-opacity="1" stroke-miterlimit="10"/><path fill="#b37c7a" d="M 409.621094 778.71875 C 409.828125 778.691406 410.035156 778.664062 410.242188 778.613281 C 409.109375 783.453125 407.589844 788.875 403.523438 791.148438 C 399.023438 793.667969 392.144531 792.277344 387.277344 791.96875 C 386.800781 791.941406 386.40625 792.015625 386.0625 792.164062 C 382.183594 792.878906 377.496094 793.339844 376.027344 788.984375 C 374.375 784.105469 373.539062 778.5625 373.210938 773.464844 C 373.125 772.109375 373.085938 770.757812 373.074219 769.402344 C 373.449219 769.6875 373.84375 769.957031 374.246094 770.214844 C 380.527344 774.183594 387.167969 770.984375 393.710938 773.613281 C 398.960938 775.726562 403.632812 779.519531 409.621094 778.71875 " fill-opacity="1" fill-rule="nonzero"/><path stroke-linecap="butt" transform="matrix(0.0335881, 0, 0, -0.033621, 202.914325, 849.535629)" fill="none" stroke-linejoin="miter" d="M 6154.163723 2106.331653 C 6160.327548 2107.144948 6166.491372 2107.958243 6172.655196 2109.468648 C 6138.92861 1965.515452 6093.688466 1804.250694 5972.621653 1736.631034 C 5838.645698 1661.691719 5633.843913 1703.053573 5488.935892 1712.232187 C 5474.747466 1713.045482 5463.00131 1710.837967 5452.767036 1706.422938 C 5337.282554 1685.161086 5197.724268 1671.451257 5153.996005 1800.997515 C 5104.801709 1946.11256 5079.913815 2110.979053 5070.144735 2262.600457 C 5067.586166 2302.916646 5066.42318 2343.116651 5066.074285 2383.43284 C 5077.238947 2374.951337 5088.985103 2366.934573 5100.963856 2359.266364 C 5287.97196 2241.22242 5485.679532 2336.377922 5680.47964 2258.185427 C 5836.784921 2195.329351 5975.878013 2082.513731 6154.163723 2106.331653 Z M 6154.163723 2106.331653 " stroke="#b37c7a" stroke-width="117.539001" stroke-opacity="1" stroke-miterlimit="10"/><path fill="#ffffff" d="M 346.148438 314.226562 C 344.035156 314.851562 341.953125 315.554688 339.929688 316.34375 C 337.808594 317.164062 335.757812 318.09375 333.742188 319.109375 C 332.992188 317.421875 327.070312 322.363281 327.167969 322.804688 C 324.0625 324.710938 321.039062 326.785156 318.070312 328.929688 C 316.351562 328.730469 312.699219 326.035156 311.257812 324.910156 C 306.621094 321.304688 302.585938 316.796875 299.328125 311.917969 C 290.660156 298.984375 288.371094 283.886719 293.515625 269.25 C 320.890625 262.957031 345.636719 287.179688 346.148438 314.226562 " fill-opacity="1" fill-rule="nonzero"/><path stroke-linecap="round" transform="matrix(0.0359527, 0, 0, -0.0359879, 202.914325, 849.535629)" fill="none" stroke-linejoin="round" d="M 3984.174942 14875.250595 C 3925.395488 14857.883633 3867.48523 14838.3458 3811.204718 14816.42001 C 3752.099315 14793.625872 3695.058254 14767.792516 3638.995041 14739.571202 C 3618.24296 14786.462 3453.421459 14649.154454 3456.24635 14636.889037 C 3369.761238 14583.919801 3285.775067 14526.283195 3203.092692 14466.692805 C 3155.286852 14472.228525 3053.69944 14547.12355 3013.607723 14578.384082 C 2884.640603 14678.569746 2772.405526 14803.828962 2681.791728 14939.399812 C 2440.698181 15298.78739 2377.029493 15718.308075 2520.121066 16125.129168 C 3281.646381 16299.992771 3969.83319 15626.914435 3984.174942 14875.250595 Z M 3984.174942 14875.250595 " stroke="#ffffff" stroke-width="109.813004" stroke-opacity="1" stroke-miterlimit="10"/><path fill="#ffffff" d="M 326.84375 469.90625 C 337.867188 491.367188 345.695312 516.136719 334.945312 539.261719 C 329.054688 551.945312 317.109375 568.15625 307.371094 580.242188 C 299.433594 590.09375 304.0625 604.871094 308.316406 609.851562 C 300.421875 609.851562 290.554688 596.019531 286.09375 590.546875 C 280.859375 583.621094 277.683594 575.304688 276.65625 566.429688 C 275.117188 553.214844 278.816406 540.210938 280.21875 527.140625 C 281.730469 513.042969 280.199219 499.003906 273.457031 486.359375 C 269.015625 478.019531 262.621094 471.035156 255.9375 464.417969 C 260.261719 465.492188 264.695312 466.273438 269.183594 466.808594 C 288.203125 469.070312 307.875 467.183594 326.84375 469.90625 " fill-opacity="1" fill-rule="nonzero"/><path stroke-linecap="round" transform="matrix(0.0335881, 0, 0, -0.033621, 202.914325, 849.535629)" fill="none" stroke-linejoin="round" d="M 3689.680686 11291.451761 C 4017.875256 10653.131458 4250.937594 9916.402473 3930.883924 9228.587367 C 3755.505678 8851.334723 3399.864645 8369.167039 3109.932305 8009.690698 C 2873.729906 7716.672168 3011.427415 7277.144373 3138.07656 7129.008518 C 2903.037146 7129.008518 2609.266953 7540.419547 2476.453984 7703.19471 C 2320.613898 7909.190687 2226.063159 8156.548518 2195.476634 8420.520802 C 2149.654997 8813.574604 2259.789744 9200.354416 2301.540932 9589.109373 C 2346.548479 10008.420981 2300.959439 10425.989814 2100.228104 10802.080607 C 1967.996628 11050.135549 1777.615865 11257.8743 1578.629009 11454.691663 C 1707.371528 11422.740793 1839.370407 11399.503796 1972.997466 11383.586453 C 2539.255213 11316.315347 3124.934821 11372.432695 3689.680686 11291.451761 Z M 3689.680686 11291.451761 " stroke="#ffffff" stroke-width="117.539001" stroke-opacity="1" stroke-miterlimit="10"/><path fill="#e787b3" d="M 326.3125 307.492188 C 327.496094 310.75 327.859375 314.101562 328.296875 317.449219 C 322.765625 314.300781 317.535156 310.289062 314.792969 304.417969 C 312.976562 300.527344 312.660156 296.359375 312.847656 292.160156 C 318.929688 295.460938 323.765625 300.4375 326.3125 307.492188 " fill-opacity="1" fill-rule="nonzero"/><path stroke-linecap="butt" transform="matrix(0.0341591, 0, 0, -0.0341925, 202.914325, 849.535629)" fill="none" stroke-linejoin="miter" d="M 3612.223921 15851.552279 C 3646.758996 15756.273741 3657.508324 15658.253374 3670.201679 15560.34725 C 3508.389988 15652.541231 3355.269242 15769.754397 3274.992347 15941.461404 C 3221.81748 16055.361527 3212.554761 16177.25865 3218.04378 16299.955473 C 3396.093817 16203.534506 3537.664753 16057.87487 3612.223921 15851.552279 Z M 3612.223921 15851.552279 " stroke="#e787b3" stroke-width="115.566002" stroke-opacity="1" stroke-miterlimit="10"/><path fill="#524041" d="M 222.246094 401.070312 C 225.078125 401.910156 235.65625 406.058594 228.550781 409.960938 C 225.640625 411.574219 220.761719 412.113281 217.578125 412.007812 C 214.457031 411.898438 207.417969 409.585938 208.210938 405.039062 C 208.308594 404.449219 208.230469 403.917969 208.042969 403.46875 C 208.082031 402.34375 208.191406 401.238281 208.378906 400.160156 C 208.710938 400.25 209.078125 400.269531 209.460938 400.210938 C 213.785156 399.570312 218.050781 399.816406 222.246094 401.070312 " fill-opacity="1" fill-rule="nonzero"/><g clip-path="url(#38483952ae)"><path stroke-linecap="butt" transform="matrix(0.0335881, 0, 0, -0.033621, 202.914325, 849.535629)" fill="none" stroke-linejoin="miter" d="M 575.553826 13338.863552 C 659.870291 13313.88378 974.806824 13190.495327 763.259721 13074.426528 C 676.617285 13026.442129 531.360369 13010.408601 436.577033 13013.545596 C 343.654474 13016.798775 134.084447 13085.580286 157.693057 13220.819608 C 160.600522 13238.36354 158.27455 13254.164698 152.692219 13267.525971 C 153.855204 13300.987247 157.111564 13333.867597 162.693896 13365.934653 C 172.579275 13363.262398 183.51134 13362.681473 194.9086 13364.424248 C 323.651119 13383.478585 450.64916 13376.158931 575.553826 13338.863552 Z M 575.553826 13338.863552 " stroke="#524041" stroke-width="117.539001" stroke-opacity="1" stroke-miterlimit="10"/></g><path fill="#f5bfde" d="M 370.496094 407.078125 C 370.496094 414.578125 361.992188 420.660156 351.5 420.660156 C 341.007812 420.660156 332.5 414.578125 332.5 407.078125 C 332.5 399.574219 341.007812 393.492188 351.5 393.492188 C 361.992188 393.492188 370.496094 399.574219 370.496094 407.078125 " fill-opacity="1" fill-rule="nonzero"/><path fill="#936c6b" d="M 369.175781 281.011719 C 379.457031 274.378906 393.855469 275.703125 402.6875 284.21875 C 404.0625 285.542969 406.15625 283.449219 404.78125 282.125 C 395.027344 272.722656 379.078125 271.097656 367.679688 278.453125 C 366.085938 279.484375 367.566406 282.050781 369.175781 281.011719 " fill-opacity="1" fill-rule="nonzero"/><path fill="#936c6b" d="M 387.757812 246.964844 C 399.878906 241.753906 415.203125 247.410156 421.332031 258.996094 C 422.226562 260.679688 424.78125 259.1875 423.890625 257.5 C 416.9375 244.359375 399.820312 238.574219 386.265625 244.40625 C 384.519531 245.160156 386.027344 247.710938 387.757812 246.964844 " fill-opacity="1" fill-rule="nonzero"/><path fill="#936c6b" d="M 425.171875 220.042969 C 437.488281 217.414062 449.230469 226.800781 449.507812 239.367188 C 449.546875 241.269531 452.507812 241.277344 452.46875 239.367188 C 452.316406 232.566406 449.222656 225.9375 443.886719 221.667969 C 438.425781 217.296875 431.195312 215.730469 424.386719 217.183594 C 422.523438 217.582031 423.3125 220.4375 425.171875 220.042969 " fill-opacity="1" fill-rule="nonzero"/><path fill="#936c6b" d="M 471.148438 207.496094 C 480.359375 208.480469 487.824219 217.921875 486.582031 227.136719 C 486.332031 229 489.183594 229.808594 489.4375 227.921875 C 490.953125 216.679688 482.445312 205.738281 471.148438 204.53125 C 469.257812 204.328125 469.269531 207.292969 471.148438 207.496094 " fill-opacity="1" fill-rule="nonzero"/><path fill="#936c6b" d="M 427.652344 297.425781 C 434.652344 296.65625 441.582031 299 447.4375 302.742188 C 452.371094 305.898438 457.496094 310.515625 459.238281 316.308594 C 459.785156 318.128906 462.640625 317.355469 462.09375 315.523438 C 460.167969 309.109375 454.78125 304.015625 449.339844 300.445312 C 443.015625 296.300781 435.277344 293.621094 427.652344 294.460938 C 425.777344 294.667969 425.757812 297.632812 427.652344 297.425781 " fill-opacity="1" fill-rule="nonzero"/><path fill="#936c6b" d="M 457.347656 268.457031 C 470.945312 267.859375 483.632812 278.335938 485.753906 291.765625 C 486.050781 293.644531 488.90625 292.847656 488.609375 290.980469 C 486.292969 276.316406 472.136719 264.839844 457.347656 265.488281 C 455.449219 265.574219 455.441406 268.539062 457.347656 268.457031 " fill-opacity="1" fill-rule="nonzero"/><path fill="#936c6b" d="M 500.679688 253.339844 C 507.808594 253.25 514.453125 257.167969 518.65625 262.820312 C 523.363281 269.148438 525.070312 277.148438 525.230469 284.910156 C 525.265625 286.8125 528.226562 286.816406 528.191406 284.910156 C 528.015625 276.308594 526.015625 267.457031 520.632812 260.5625 C 515.863281 254.449219 508.535156 250.273438 500.679688 250.378906 C 498.773438 250.402344 498.769531 253.367188 500.679688 253.339844 " fill-opacity="1" fill-rule="nonzero"/><path fill="#936c6b" d="M 541.847656 257.574219 C 553.480469 261.695312 559.839844 275.890625 555.558594 287.371094 C 554.894531 289.164062 557.753906 289.933594 558.417969 288.15625 C 563.289062 275.085938 555.683594 259.339844 542.632812 254.714844 C 540.835938 254.078125 540.058594 256.941406 541.847656 257.574219 " fill-opacity="1" fill-rule="nonzero"/><path fill="#936c6b" d="M 576.019531 275.265625 C 579.851562 277.589844 582.175781 281.582031 583.292969 285.847656 C 583.957031 288.394531 584.199219 291.027344 584.253906 293.652344 C 584.28125 294.914062 584.261719 296.171875 584.222656 297.433594 C 584.207031 298.066406 584.179688 298.691406 584.152344 299.324219 C 584.136719 299.742188 584.117188 300.164062 584.097656 300.582031 C 583.882812 301.582031 584.410156 302.273438 585.679688 302.652344 C 585.386719 302.878906 585.09375 303.105469 584.792969 303.332031 C 584.832031 303.320312 584.878906 303.308594 584.917969 303.296875 C 584.539062 303.246094 584.160156 303.195312 583.78125 303.144531 C 583.832031 303.179688 583.878906 303.214844 583.929688 303.246094 C 585.511719 304.324219 586.992188 301.757812 585.425781 300.691406 C 582.714844 298.84375 581.523438 304.980469 585.058594 304.25 C 586.765625 303.902344 586.980469 301.988281 587.058594 300.582031 C 587.191406 298.171875 587.269531 295.75 587.207031 293.339844 C 586.996094 285.460938 584.640625 277.03125 577.511719 272.707031 C 575.875 271.710938 574.390625 274.277344 576.019531 275.265625 " fill-opacity="1" fill-rule="nonzero"/><path fill="#936c6b" d="M 505.550781 210.402344 C 514.707031 213.304688 520.164062 223.980469 517.335938 233.125 C 516.773438 234.949219 519.628906 235.730469 520.191406 233.914062 C 523.507812 223.195312 516.984375 210.921875 506.339844 207.542969 C 504.515625 206.964844 503.738281 209.828125 505.550781 210.402344 " fill-opacity="1" fill-rule="nonzero"/><path fill="#0e0f0e" d="M 441.96875 336.75 C 424.179688 321.019531 401.554688 311.261719 377.726562 310.433594 C 364.246094 309.964844 349.914062 312.019531 337.472656 317.363281 C 325.25 322.613281 315.035156 331.355469 304.320312 339.039062 C 292.683594 347.386719 280.253906 354.683594 267.402344 360.996094 C 254.699219 367.230469 241.578125 372.066406 228.179688 376.542969 C 217.128906 380.234375 205.304688 385.867188 203.320312 398.679688 C 202.324219 405.132812 203.308594 411.914062 205.019531 418.164062 C 206.644531 424.09375 209.160156 429.824219 212.414062 435.03125 C 219.128906 445.785156 228.898438 454.277344 240.460938 459.445312 C 252.488281 464.820312 265.589844 466.804688 278.644531 467.652344 C 301.542969 469.132812 325.453125 466.5 347.257812 475.136719 C 362.035156 480.988281 373.234375 492.109375 380.578125 506.03125 C 388.21875 520.523438 392.046875 536.761719 395.722656 552.617188 C 399.75 569.976562 403.417969 587.515625 409.773438 604.21875 C 413.746094 614.664062 418.800781 624.492188 425.648438 633.355469 C 433.167969 643.085938 442.378906 651.460938 452.75 658.058594 C 457.890625 661.328125 463.300781 664.082031 468.914062 666.4375 C 470.226562 666.988281 471.78125 665.839844 472.136719 664.601562 C 472.566406 663.097656 471.605469 661.925781 470.304688 661.378906 C 448.195312 652.097656 429.597656 634.632812 419.164062 613.011719 C 411.519531 597.171875 407.367188 579.792969 403.425781 562.742188 C 399.695312 546.589844 396.363281 530.171875 390.25 514.710938 C 384.519531 500.234375 376.105469 486.941406 363.234375 477.839844 C 346.785156 466.207031 326.554688 463.820312 306.953125 463.296875 C 281.964844 462.621094 254.207031 464.007812 232.675781 449.066406 C 222.9375 442.308594 215.410156 432.230469 211.429688 421.078125 C 209.40625 415.402344 208.082031 409.300781 208.167969 403.25 C 208.25 397.238281 210.5 391.992188 215.328125 388.3125 C 219.722656 384.964844 225.085938 383.078125 230.28125 381.367188 C 236.726562 379.242188 243.144531 377.097656 249.460938 374.605469 C 262.628906 369.414062 275.40625 363.238281 287.621094 356.078125 C 293.582031 352.582031 299.425781 348.871094 305.089844 344.902344 C 310.460938 341.136719 315.628906 337.09375 320.953125 333.265625 C 326.222656 329.476562 331.664062 325.871094 337.53125 323.066406 C 343.644531 320.140625 350.285156 318.429688 356.929688 317.207031 C 380.914062 312.800781 405.570312 317.929688 426.015625 331.152344 C 430.332031 333.941406 434.410156 337.058594 438.261719 340.464844 C 440.78125 342.6875 444.5 338.996094 441.96875 336.75 " fill-opacity="1" fill-rule="nonzero"/><g clip-path="url(#7d7e9aa1ba)"><path fill="#0e0f0e" d="M 464.695312 379.371094 C 468.101562 389.664062 470.824219 400.164062 474.527344 410.359375 C 476.117188 414.734375 477.75 419.335938 480.316406 423.25 C 484.023438 428.910156 488.347656 434.285156 492.839844 439.332031 C 501.4375 449 511.515625 457.472656 522.953125 463.574219 C 535.089844 470.050781 548.0625 473.246094 561.632812 474.929688 C 588.3125 478.242188 615.039062 478.703125 641.769531 475.769531 C 663.632812 473.375 685.671875 468.972656 707.75 470.027344 C 723.214844 470.765625 738.617188 474.378906 752.785156 480.644531 C 765.398438 486.226562 777.699219 493.664062 787.464844 503.511719 C 803.25 519.441406 811.085938 541.117188 813.609375 563.085938 C 816.316406 586.605469 813.90625 610.523438 809.710938 633.722656 C 807.691406 644.875 805.214844 655.941406 802.496094 666.941406 C 799.664062 678.382812 796.179688 689.707031 793.839844 701.261719 C 791.148438 714.511719 790.460938 727.855469 790.53125 741.339844 C 790.613281 755.148438 790.089844 768.949219 790.347656 782.75 C 790.492188 790.292969 790.558594 797.851562 789.84375 805.363281 C 789.242188 811.648438 787.753906 817.667969 785.980469 823.703125 C 783.851562 830.957031 780.867188 840.941406 772.847656 843.617188 C 767.855469 845.28125 762.375 843.734375 757.726562 841.730469 C 754.664062 840.410156 751.988281 844.925781 755.082031 846.257812 C 760.511719 848.601562 766.371094 850.316406 772.308594 849.171875 C 776.683594 848.332031 780.460938 845.714844 783.210938 842.265625 C 786.039062 838.707031 787.894531 834.515625 789.398438 830.25 C 791.039062 825.570312 792.484375 820.6875 793.519531 815.835938 C 796.695312 801.042969 795.261719 785.976562 795.460938 770.988281 C 795.554688 763.769531 795.867188 756.558594 795.832031 749.328125 C 795.796875 742.921875 795.6875 736.507812 795.851562 730.101562 C 796.234375 715.734375 798.734375 701.898438 802.441406 688.039062 C 805.246094 677.570312 807.957031 667.070312 810.367188 656.496094 C 815.660156 633.265625 819.699219 609.503906 819.949219 585.617188 C 820.1875 562.71875 816.789062 539.035156 805.464844 518.816406 C 792.25 495.230469 768.296875 479.695312 743.097656 471.332031 C 728.304688 466.421875 712.597656 464.171875 697.027344 464.710938 C 686.304688 465.085938 675.625 466.285156 664.988281 467.636719 C 641.894531 470.570312 618.988281 473.195312 595.652344 472.433594 C 588.035156 472.183594 580.425781 471.664062 572.839844 470.929688 C 564.820312 470.148438 556.714844 469.363281 548.839844 467.597656 C 536.054688 464.730469 524.101562 459.222656 513.570312 451.425781 C 502.71875 443.390625 493.605469 433.082031 485.859375 422.074219 C 483.039062 418.0625 481.246094 413.550781 479.582031 408.96875 C 477.492188 403.214844 475.675781 397.363281 473.894531 391.507812 C 472.527344 386.996094 471.230469 382.453125 469.75 377.976562 C 468.691406 374.789062 463.628906 376.152344 464.695312 379.371094 " fill-opacity="1" fill-rule="nonzero"/></g><path fill="#0e0f0e" d="M 662.132812 601.085938 C 667.679688 618.386719 677.855469 634.148438 691.4375 646.226562 C 698.222656 652.261719 705.90625 656.84375 713.433594 661.847656 C 720.792969 666.742188 727.527344 672.5 730.742188 680.984375 C 732.519531 685.679688 733.480469 690.628906 734.414062 695.546875 C 735.425781 700.878906 736.375 706.21875 737.242188 711.574219 C 738.933594 722.007812 740.289062 732.5 741.121094 743.039062 C 742.796875 764.242188 742.273438 785.640625 738.691406 806.632812 C 737.84375 811.621094 736.476562 816.5625 735.851562 821.582031 C 735.40625 825.160156 735.59375 828.816406 736.304688 832.347656 C 736.96875 835.65625 738.238281 838.949219 740.460938 841.527344 C 742.789062 844.230469 745.695312 844.90625 749.101562 845.042969 C 751.097656 845.125 753.171875 845.390625 754.953125 846.34375 C 757.925781 847.933594 760.578125 843.402344 757.597656 841.8125 C 755.574219 840.730469 753.425781 840.222656 751.160156 839.960938 C 749.546875 839.773438 747.757812 840.035156 746.34375 839.503906 C 744.230469 838.707031 742.800781 835.976562 742.066406 833.683594 C 741.035156 830.492188 740.71875 827.121094 740.894531 823.78125 C 741.128906 819.347656 742.5 814.960938 743.292969 810.601562 C 747.085938 789.738281 748.054688 768.492188 746.675781 747.34375 C 745.996094 736.984375 744.792969 726.671875 743.261719 716.40625 C 741.726562 706.082031 740.210938 695.558594 737.617188 685.4375 C 736.421875 680.773438 734.734375 676.125 732.074219 672.085938 C 729.644531 668.398438 726.554688 665.21875 723.128906 662.453125 C 716.292969 656.925781 708.464844 652.84375 701.410156 647.625 C 687.210938 637.125 675.90625 622.375 669.414062 605.945312 C 668.597656 603.886719 667.863281 601.800781 667.183594 599.691406 C 666.160156 596.492188 661.097656 597.859375 662.132812 601.085938 " fill-opacity="1" fill-rule="nonzero"/><path fill="#0e0f0e" d="M 209.460938 400.203125 C 214.675781 399.339844 220.167969 400.003906 225.050781 402.035156 C 227.15625 402.914062 235.195312 407.1875 230.109375 409.425781 C 227.886719 410.410156 225.3125 410.96875 222.941406 411.457031 C 220.386719 411.988281 217.664062 412.265625 215.082031 411.75 C 213.058594 411.34375 211.523438 410.410156 210.105469 408.914062 C 209.222656 407.976562 207.847656 406.363281 208.210938 405.042969 C 209.101562 401.78125 204.046875 400.390625 203.15625 403.648438 C 201.933594 408.101562 205.574219 412.386719 208.941406 414.796875 C 213.480469 418.042969 219.78125 417.535156 224.933594 416.390625 C 229.445312 415.382812 236.421875 414.027344 237.015625 408.382812 C 237.625 402.636719 231.464844 399.070312 226.972656 397.199219 C 220.96875 394.699219 214.464844 394.089844 208.066406 395.148438 C 206.667969 395.378906 205.890625 397.113281 206.238281 398.371094 C 206.644531 399.859375 208.058594 400.4375 209.460938 400.203125 " fill-opacity="1" fill-rule="nonzero"/><path fill="#0e0f0e" d="M 223.054688 445.238281 C 232.632812 451.050781 244.796875 448.257812 251.207031 439.207031 C 253.160156 436.441406 248.613281 433.820312 246.679688 436.554688 C 241.894531 443.316406 232.6875 444.949219 225.699219 440.707031 C 222.808594 438.953125 220.171875 443.488281 223.054688 445.238281 " fill-opacity="1" fill-rule="nonzero"/><path fill="#0e0f0e" d="M 245.8125 461.882812 C 252.945312 468.785156 260.394531 475.65625 265.921875 483.976562 C 271.851562 492.890625 275.203125 503.355469 275.566406 514.0625 C 276 526.917969 272.78125 539.40625 271.398438 552.101562 C 270.484375 560.511719 271.136719 569.230469 273.574219 577.34375 C 276.835938 588.1875 283.390625 597.445312 292.523438 604.121094 C 293.675781 604.964844 295.433594 604.308594 296.109375 603.179688 C 296.898438 601.859375 296.304688 600.421875 295.167969 599.589844 C 280.269531 588.699219 274.734375 570.097656 276.621094 552.285156 C 277.949219 539.730469 281.136719 527.410156 280.824219 514.699219 C 280.554688 503.746094 277.503906 492.828125 271.800781 483.449219 C 265.925781 473.792969 257.578125 465.96875 249.519531 458.171875 C 247.09375 455.824219 243.382812 459.527344 245.8125 461.882812 " fill-opacity="1" fill-rule="nonzero"/><path fill="#0e0f0e" d="M 326.78125 469.902344 C 336.171875 487.734375 344.738281 508.925781 339.503906 529.351562 C 335.621094 544.503906 324.921875 556.582031 315.109375 568.300781 C 312.089844 571.898438 308.6875 575.4375 306.3125 579.503906 C 303.453125 584.40625 300.859375 590.265625 300.761719 596.019531 C 300.707031 599.394531 305.945312 599.398438 306.003906 596.019531 C 306.085938 591.207031 308.453125 586.238281 310.835938 582.15625 C 312.746094 578.882812 315.625 575.816406 318.324219 572.59375 C 323.675781 566.203125 329.121094 559.855469 333.871094 552.996094 C 338.3125 546.582031 342.058594 539.605469 344.199219 532.070312 C 346.605469 523.601562 346.785156 514.777344 345.472656 506.109375 C 343.398438 492.421875 337.710938 479.417969 331.308594 467.253906 C 329.734375 464.261719 325.210938 466.914062 326.78125 469.902344 " fill-opacity="1" fill-rule="nonzero"/><path fill="#0e0f0e" d="M 318.515625 502.730469 C 320.5625 512.414062 322.527344 522.324219 321.695312 532.273438 C 321.304688 536.992188 320.136719 541.730469 317.960938 545.953125 C 315.816406 550.117188 312.765625 553.6875 310.273438 557.628906 C 307.054688 562.707031 304.617188 568.375 302.796875 574.09375 C 300.769531 580.46875 299.433594 587.40625 300.136719 594.113281 C 300.941406 601.820312 304.546875 608.621094 311.414062 612.523438 C 314.351562 614.195312 316.996094 609.664062 314.0625 607.996094 C 302.371094 601.351562 304.460938 585.953125 307.96875 575.117188 C 309.683594 569.820312 311.984375 564.625 315.011719 559.941406 C 317.574219 555.976562 320.640625 552.351562 322.742188 548.09375 C 324.90625 543.71875 326.140625 539.054688 326.734375 534.222656 C 328.085938 523.226562 325.835938 512.0625 323.566406 501.335938 C 322.867188 498.035156 317.816406 499.433594 318.515625 502.730469 " fill-opacity="1" fill-rule="nonzero"/><path fill="#0e0f0e" d="M 294.082031 542.011719 C 288.453125 554.714844 282.414062 568.628906 284.246094 582.855469 C 284.941406 588.242188 286.847656 593.503906 289.078125 598.4375 C 290.949219 602.582031 293.453125 606.660156 297.050781 609.523438 C 301.808594 613.304688 307.597656 614.097656 313.433594 612.789062 C 316.722656 612.054688 315.332031 606.996094 312.042969 607.730469 C 308.050781 608.625 304.011719 608.242188 300.667969 605.734375 C 297.59375 603.425781 295.550781 599.9375 293.9375 596.519531 C 292.03125 592.476562 290.410156 588.015625 289.621094 583.613281 C 288.535156 577.527344 289.371094 571.207031 290.910156 565.277344 C 292.757812 558.15625 295.632812 551.363281 298.609375 544.65625 C 299.183594 543.351562 298.976562 541.855469 297.667969 541.070312 C 296.558594 540.402344 294.65625 540.71875 294.082031 542.011719 " fill-opacity="1" fill-rule="nonzero"/><path fill="#0e0f0e" d="M 523.910156 685.652344 C 547.761719 691.183594 572.539062 694.492188 597.039062 694.46875 C 609.691406 694.457031 622.054688 692.875 634.46875 690.527344 C 649.074219 687.769531 663.496094 684.128906 677.792969 680.074219 C 685.785156 677.8125 693.738281 675.421875 701.675781 672.972656 C 705.589844 671.765625 709.503906 670.546875 713.417969 669.324219 C 715.96875 668.523438 718.648438 667.25 721.34375 667.164062 C 724.710938 667.058594 724.722656 661.808594 721.34375 661.917969 C 718.796875 662 716.355469 662.828125 713.96875 663.636719 C 710.769531 664.722656 707.523438 665.671875 704.300781 666.671875 C 697.292969 668.847656 690.28125 670.988281 683.242188 673.050781 C 669.078125 677.191406 654.804688 681 640.359375 684.019531 C 627.699219 686.664062 614.984375 688.832031 602.035156 689.160156 C 589.539062 689.472656 577.019531 688.671875 564.609375 687.277344 C 551.398438 685.796875 538.253906 683.597656 525.304688 680.59375 C 522.023438 679.835938 520.621094 684.890625 523.910156 685.652344 " fill-opacity="1" fill-rule="nonzero"/><path fill="#0e0f0e" d="M 448.179688 618.765625 C 462.820312 647.707031 473.011719 678.839844 478.492188 710.8125 C 481.234375 726.820312 482.75 743.042969 483.050781 759.28125 C 483.203125 767.417969 483.144531 775.59375 482.484375 783.710938 C 481.804688 792.0625 480.617188 800.371094 480.230469 808.75 C 480.019531 813.269531 480.046875 817.8125 480.546875 822.3125 C 480.808594 824.675781 481.167969 827.035156 481.691406 829.351562 C 482.136719 831.339844 482.582031 833.484375 483.597656 835.273438 C 487.214844 841.636719 496.140625 842.316406 502.460938 840.597656 C 505.714844 839.710938 504.332031 834.648438 501.070312 835.535156 C 496.550781 836.765625 489.234375 836.6875 487.59375 831.234375 C 485.25 823.460938 485.085938 815.238281 485.550781 807.191406 C 486.023438 799.027344 487.171875 790.921875 487.796875 782.773438 C 488.410156 774.765625 488.445312 766.699219 488.28125 758.675781 C 487.632812 727.121094 482.421875 695.621094 472.890625 665.539062 C 467.511719 648.554688 460.746094 632.011719 452.707031 616.117188 C 451.183594 613.101562 446.660156 615.757812 448.179688 618.765625 " fill-opacity="1" fill-rule="nonzero"/><path fill="#0e0f0e" d="M 522.519531 647.195312 C 521.753906 662.488281 521.671875 677.816406 522.292969 693.121094 C 522.910156 708.300781 524.378906 723.390625 526.097656 738.480469 C 527.792969 753.371094 529.4375 768.296875 529.367188 783.304688 C 529.300781 796.765625 527.789062 810.230469 523.023438 822.894531 C 521.355469 827.328125 519.101562 833.988281 514.660156 835.945312 C 510.507812 837.773438 504.890625 836.273438 500.488281 835.535156 C 499.09375 835.304688 497.667969 835.902344 497.265625 837.367188 C 496.921875 838.625 497.691406 840.359375 499.09375 840.597656 C 503.9375 841.402344 509.078125 842.554688 513.984375 841.597656 C 518.449219 840.730469 521.699219 837.542969 523.890625 833.695312 C 527.25 827.804688 529.496094 821.023438 531.140625 814.464844 C 532.859375 807.605469 533.8125 800.558594 534.269531 793.503906 C 535.253906 778.332031 534.027344 763.109375 532.40625 748.027344 C 530.707031 732.28125 528.789062 716.589844 527.902344 700.765625 C 526.90625 682.925781 526.867188 665.039062 527.761719 647.195312 C 527.929688 643.820312 522.6875 643.828125 522.519531 647.195312 " fill-opacity="1" fill-rule="nonzero"/><path fill="#0e0f0e" d="M 412.976562 612.359375 C 411.808594 626.46875 411.511719 640.625 410.355469 654.730469 C 409.820312 661.246094 408.964844 667.734375 407.722656 674.160156 C 406.171875 682.207031 403.988281 690.34375 399.921875 697.519531 C 396.457031 703.632812 391.34375 708.71875 387.089844 714.265625 C 382.402344 720.378906 378.605469 727.300781 375.546875 734.355469 C 369.332031 748.699219 366.332031 764.386719 368.6875 779.953125 C 369.164062 783.121094 370.121094 786.148438 370.746094 789.273438 C 371.027344 790.683594 371.417969 792.054688 372.179688 793.289062 C 375.511719 798.652344 382.589844 798.234375 387.972656 797.128906 C 391.273438 796.445312 389.875 791.386719 386.578125 792.066406 C 384.027344 792.59375 381.179688 793.019531 378.660156 792.128906 C 377.417969 791.695312 376.988281 791.15625 376.339844 789.976562 C 376.269531 789.847656 376.15625 789.511719 376.386719 790.105469 C 376.335938 789.972656 376.277344 789.839844 376.238281 789.699219 C 376.171875 789.46875 376.09375 789.238281 376.03125 789.003906 C 375.914062 788.542969 375.851562 788.078125 375.75 787.617188 C 375.132812 784.765625 374.285156 781.996094 373.824219 779.101562 C 371.464844 764.332031 374.644531 748.933594 380.769531 735.433594 C 383.75 728.871094 387.34375 722.367188 391.796875 716.683594 C 396.007812 711.308594 400.90625 706.289062 404.339844 700.347656 C 411.691406 687.632812 413.960938 672.070312 415.339844 657.652344 C 416.777344 642.59375 416.96875 627.433594 418.214844 612.359375 C 418.492188 608.996094 413.253906 609.015625 412.976562 612.359375 " fill-opacity="1" fill-rule="nonzero"/><path fill="#0e0f0e" d="M 387.277344 797.21875 C 392.40625 797.542969 397.960938 798.28125 403.011719 796.945312 C 407.445312 795.769531 410.511719 792.492188 412.351562 788.394531 C 413.746094 785.285156 414.609375 782.039062 415.484375 778.757812 C 416.558594 774.699219 417.71875 770.660156 419.011719 766.667969 C 420.820312 761.078125 422.871094 755.535156 425.636719 750.339844 C 429.054688 743.929688 433.292969 739.453125 438.875 734.59375 C 445.417969 728.886719 451.042969 722.546875 455.558594 715.089844 C 460.335938 707.203125 463.460938 698.46875 465.425781 689.488281 C 467.417969 680.394531 468.410156 671.117188 469.898438 661.933594 C 470.121094 660.535156 469.535156 659.109375 468.066406 658.707031 C 466.816406 658.363281 465.070312 659.132812 464.84375 660.539062 C 462.320312 676.125 461.175781 692.351562 454.140625 706.75 C 449.878906 715.464844 444.128906 722.941406 436.90625 729.359375 C 431.8125 733.882812 426.902344 738.238281 423.21875 744.0625 C 416.472656 754.722656 413.058594 767.414062 409.875 779.480469 C 409.109375 782.375 408.257812 785.328125 406.707031 787.914062 C 406.121094 788.886719 405.796875 789.3125 404.90625 790.179688 C 404.515625 790.558594 403.570312 791.179688 402.976562 791.441406 C 401.1875 792.230469 399.164062 792.367188 396.953125 792.394531 C 393.726562 792.4375 390.496094 792.175781 387.277344 791.972656 C 383.910156 791.761719 383.921875 797.007812 387.277344 797.21875 " fill-opacity="1" fill-rule="nonzero"/><path fill="#0e0f0e" d="M 435.039062 353.429688 C 440.136719 341.035156 450.019531 330.824219 461.9375 324.828125 C 474.382812 318.566406 488.910156 317.609375 502.210938 321.574219 C 509.886719 323.859375 517.058594 327.75 523.074219 333.058594 C 522.847656 332.675781 522.625 332.289062 522.398438 331.90625 C 524.230469 337.398438 520.007812 343.917969 517.070312 348.242188 C 513.664062 353.261719 509.496094 357.949219 504.578125 361.53125 C 493.460938 369.621094 479.546875 373.300781 465.972656 374.136719 C 456.710938 374.707031 447.410156 373.992188 438.308594 372.191406 C 435.015625 371.542969 433.605469 376.597656 436.914062 377.253906 C 453.308594 380.488281 470.589844 380.609375 486.707031 375.847656 C 493.429688 373.859375 500 371 505.8125 367.054688 C 511.453125 363.222656 516.128906 358.386719 520.164062 352.910156 C 524.058594 347.628906 528.292969 340.808594 528.050781 333.972656 C 527.996094 332.46875 527.796875 330.535156 526.78125 329.347656 C 525.484375 327.84375 523.519531 326.617188 521.925781 325.464844 C 518.71875 323.140625 515.269531 321.152344 511.65625 319.53125 C 497.167969 313.03125 480.289062 311.972656 465.351562 317.640625 C 449.386719 323.703125 436.484375 336.242188 429.988281 352.039062 C 429.449219 353.347656 430.570312 354.921875 431.820312 355.265625 C 433.320312 355.679688 434.5 354.75 435.039062 353.429688 " fill-opacity="1" fill-rule="nonzero"/><path fill="#0e0f0e" d="M 444.160156 360.765625 C 448.675781 354.078125 455.859375 349.417969 463.125 346.195312 C 470.894531 342.753906 479.609375 340.847656 488.121094 341.292969 C 492.367188 341.515625 496.644531 342.429688 500.441406 344.382812 C 500.441406 342.875 500.441406 341.367188 500.441406 339.855469 C 491.574219 345.46875 481.742188 349.546875 471.695312 352.5 C 461.761719 355.425781 451.265625 357.414062 440.875 356.589844 C 437.511719 356.324219 437.53125 361.566406 440.875 361.835938 C 449.140625 362.492188 457.535156 361.347656 465.585938 359.515625 C 474.339844 357.53125 482.882812 354.570312 491.050781 350.839844 C 495.195312 348.949219 499.234375 346.820312 503.089844 344.382812 C 504.667969 343.386719 504.910156 340.792969 503.089844 339.855469 C 494.910156 335.640625 485.414062 335.34375 476.492188 336.796875 C 467.183594 338.308594 457.925781 341.957031 450.253906 347.476562 C 446.140625 350.433594 442.480469 353.910156 439.636719 358.121094 C 437.742188 360.925781 442.28125 363.554688 444.160156 360.765625 " fill-opacity="1" fill-rule="nonzero"/><path fill="#0e0f0e" d="M 366.789062 312.941406 C 364.523438 294.929688 370.847656 276.886719 380.039062 261.628906 C 384.691406 253.902344 390.207031 246.707031 396.53125 240.273438 C 402.300781 234.40625 408.960938 229.550781 416.074219 225.453125 C 430.660156 217.050781 447.195312 211.558594 463.875 209.335938 C 480.824219 207.078125 498.355469 208.917969 514.339844 215.070312 C 528.492188 220.519531 541.757812 229.792969 550.222656 242.554688 C 551.1875 244.003906 552.082031 245.5 552.925781 247.03125 C 553.910156 245.746094 554.898438 244.460938 555.886719 243.175781 C 543.804688 238.535156 531.699219 233.835938 519.058594 230.925781 C 504.984375 227.6875 490.574219 226.871094 476.257812 228.894531 C 468.769531 229.953125 461.125 231.5625 454.078125 234.367188 C 448.410156 236.621094 443.082031 239.59375 438.105469 243.121094 C 427.203125 250.84375 417.878906 260.8125 410.652344 272.050781 C 402.851562 284.179688 397.296875 298.363281 397.230469 312.941406 C 397.214844 316.320312 402.457031 316.324219 402.472656 312.941406 C 402.527344 300.710938 406.820312 288.851562 412.925781 278.378906 C 419.339844 267.367188 427.925781 257.46875 438.015625 249.667969 C 442.71875 246.035156 447.824219 242.855469 453.234375 240.382812 C 459.421875 237.566406 466.199219 235.960938 472.859375 234.734375 C 486.535156 232.210938 500.578125 232.476562 514.195312 235.230469 C 528.078125 238.042969 541.308594 243.171875 554.492188 248.234375 C 556.742188 249.101562 558.464844 246.230469 557.453125 244.382812 C 549.734375 230.335938 536.832031 219.625 522.457031 212.875 C 506.179688 205.234375 487.738281 202.078125 469.835938 203.46875 C 452.304688 204.832031 434.921875 209.878906 419.230469 217.796875 C 411.410156 221.738281 403.984375 226.527344 397.367188 232.285156 C 390.46875 238.292969 384.515625 245.480469 379.351562 253.015625 C 368.734375 268.496094 360.796875 287.285156 361.078125 306.34375 C 361.109375 308.550781 361.269531 310.753906 361.546875 312.941406 C 361.722656 314.351562 362.625 315.566406 364.167969 315.566406 C 365.445312 315.566406 366.964844 314.359375 366.789062 312.941406 " fill-opacity="1" fill-rule="nonzero"/><path fill="#0e0f0e" d="M 415.757812 320.570312 C 422.96875 304.128906 434.34375 289.65625 448.015625 278.097656 C 461.492188 266.707031 477.785156 257.945312 495.339844 255.152344 C 510.546875 252.738281 526.679688 254.628906 541.402344 258.828125 C 555.824219 262.949219 569.851562 269.695312 581.246094 279.570312 C 591.722656 288.644531 599.832031 300.453125 602.328125 314.265625 C 602.628906 315.917969 602.820312 317.574219 602.949219 319.246094 C 604.4375 318.628906 605.929688 318.007812 607.417969 317.390625 C 601.234375 309.808594 593.265625 303.691406 584.890625 298.710938 C 575.164062 292.921875 564.519531 288.554688 553.566406 285.707031 C 530.449219 279.699219 504.914062 280.46875 483.683594 292.25 C 470.335938 299.65625 459.730469 311.050781 452.167969 324.226562 C 450.484375 327.160156 455.011719 329.804688 456.691406 326.875 C 463.175781 315.574219 471.941406 305.648438 483.035156 298.71875 C 492.675781 292.695312 503.710938 289.046875 514.992188 287.796875 C 536.972656 285.355469 559.765625 290.800781 579.046875 301.410156 C 588.355469 306.53125 596.953125 312.8125 603.714844 321.101562 C 605.125 322.832031 608.351562 321.433594 608.183594 319.246094 C 607.0625 304.265625 600 290.75 589.53125 280.148438 C 578.414062 268.882812 564.152344 260.960938 549.28125 255.820312 C 534.058594 250.550781 517.597656 248.078125 501.507812 249.226562 C 483.046875 250.546875 465.636719 258.21875 450.878906 269.191406 C 435.75 280.433594 422.8125 295.042969 414.136719 311.832031 C 413.101562 313.832031 412.136719 315.859375 411.234375 317.921875 C 410.660156 319.230469 410.863281 320.722656 412.171875 321.507812 C 413.28125 322.175781 415.191406 321.863281 415.757812 320.570312 " fill-opacity="1" fill-rule="nonzero"/><path fill="#0e0f0e" d="M 344.222656 393.3125 C 344.222656 398.246094 340.230469 402.242188 335.304688 402.242188 C 330.378906 402.242188 326.382812 398.246094 326.382812 393.3125 C 326.382812 388.382812 330.378906 384.382812 335.304688 384.382812 C 340.230469 384.382812 344.222656 388.382812 344.222656 393.3125 " fill-opacity="1" fill-rule="nonzero"/><path stroke-linecap="butt" transform="matrix(0.0335881, 0, 0, -0.033621, 202.914325, 849.535629)" fill="none" stroke-linejoin="miter" d="M 4207.093032 13569.60693 C 4207.093032 13422.865295 4088.235892 13304.008056 3941.583393 13304.008056 C 3794.930894 13304.008056 3675.957455 13422.865295 3675.957455 13569.60693 C 3675.957455 13716.23238 3794.930894 13835.205804 3941.583393 13835.205804 C 4088.235892 13835.205804 4207.093032 13716.23238 4207.093032 13569.60693 Z M 4207.093032 13569.60693 " stroke="#0e0f0e" stroke-width="52.011002" stroke-opacity="1" stroke-miterlimit="10"/><path fill="#0e0f0e" d="M 650.542969 684.914062 C 652.464844 695.070312 654.894531 705.074219 657.210938 715.144531 C 657.476562 716.296875 657.714844 717.453125 657.914062 718.617188 C 657.953125 718.832031 657.984375 719.042969 658.011719 719.25 C 657.886719 718.371094 658.007812 719.246094 658.027344 719.460938 C 658.058594 719.933594 658.097656 720.402344 658.105469 720.878906 C 658.105469 721.292969 658.097656 721.703125 658.066406 722.113281 C 658.050781 722.339844 658.019531 722.570312 658 722.796875 C 657.984375 722.976562 657.90625 723.289062 658.039062 722.515625 C 658.011719 722.65625 658 722.796875 657.96875 722.941406 C 657.769531 723.925781 657.546875 724.894531 657.253906 725.859375 C 654.820312 733.960938 651.511719 741.824219 648.859375 749.863281 C 646.316406 757.570312 643.738281 765.269531 641.214844 772.976562 C 638.675781 780.707031 637.027344 788.539062 636.226562 796.636719 C 635.792969 801.050781 635.582031 805.488281 635.476562 809.921875 C 635.417969 812.253906 635.390625 814.582031 635.378906 816.910156 C 635.371094 818.675781 635.410156 820.417969 636.074219 822.078125 C 638.6875 828.621094 646.816406 828.332031 652.480469 826.765625 C 655.730469 825.867188 654.351562 820.804688 651.089844 821.703125 C 647.644531 822.660156 641.015625 823.785156 640.625 818.640625 C 640.320312 814.742188 640.667969 810.65625 640.8125 806.75 C 640.953125 802.953125 641.1875 799.160156 641.597656 795.375 C 642.449219 787.527344 644.363281 779.996094 646.878906 772.527344 C 649.378906 765.105469 651.785156 757.660156 654.253906 750.226562 C 656.800781 742.5625 659.945312 735.0625 662.28125 727.335938 C 663.550781 723.15625 663.460938 719.285156 662.550781 715.039062 C 660.300781 704.507812 657.601562 694.109375 655.597656 683.519531 C 654.96875 680.203125 649.917969 681.609375 650.542969 684.914062 " fill-opacity="1" fill-rule="nonzero"/><path fill="#0e0f0e" d="M 651.089844 826.765625 C 657.242188 828.605469 664.546875 830.210938 670.792969 827.847656 C 675.835938 825.9375 679.074219 821.863281 681.125 817 C 683.507812 811.347656 684.5625 805.210938 685.738281 799.21875 C 687.273438 791.347656 689.03125 783.605469 691.480469 775.960938 C 695.84375 762.332031 701.128906 749.066406 708.285156 736.648438 C 712.054688 730.101562 716.199219 723.726562 717.796875 716.222656 C 718.839844 711.335938 719.074219 706.300781 719.023438 701.320312 C 718.941406 693.503906 718.214844 685.699219 717.394531 677.929688 C 717.113281 675.296875 716.816406 672.667969 716.507812 670.039062 C 716.34375 668.636719 715.421875 667.417969 713.886719 667.417969 C 712.597656 667.417969 711.097656 668.625 711.265625 670.039062 C 712.285156 678.683594 713.226562 687.359375 713.625 696.054688 C 713.863281 701.207031 713.914062 706.988281 713.277344 711.78125 C 713.082031 713.238281 712.632812 715.523438 712.144531 717.261719 C 711.90625 718.089844 711.648438 718.910156 711.355469 719.722656 C 711.214844 720.097656 711.074219 720.476562 710.925781 720.847656 C 710.890625 720.9375 710.660156 721.5 710.792969 721.179688 C 710.921875 720.878906 710.660156 721.492188 710.613281 721.597656 C 709.15625 724.855469 707.320312 727.917969 705.515625 730.992188 C 699.300781 741.558594 694.164062 752.558594 689.984375 764.097656 C 686.984375 772.375 684.277344 780.773438 682.398438 789.378906 C 680.992188 795.800781 679.992188 802.316406 678.351562 808.6875 C 677.136719 813.382812 675.632812 818.039062 672.164062 821.121094 C 671.734375 821.5 671.855469 821.40625 671.253906 821.792969 C 670.777344 822.105469 670.28125 822.382812 669.765625 822.628906 C 669.394531 822.808594 669.242188 822.859375 668.613281 823.058594 C 668.011719 823.246094 667.402344 823.390625 666.785156 823.511719 C 664.289062 823.988281 661.027344 823.695312 658.292969 823.167969 C 656.328125 822.789062 654.394531 822.277344 652.480469 821.703125 C 649.242188 820.734375 647.859375 825.796875 651.089844 826.765625 " fill-opacity="1" fill-rule="nonzero"/><path fill="#0e0f0e" d="M 762.617188 484.9375 C 774.78125 486.949219 786.886719 482.464844 797.617188 477.089844 C 807.140625 472.316406 816.113281 464.425781 818.523438 453.613281 C 819.886719 447.476562 819.167969 440.875 815.699219 435.546875 C 813.859375 432.726562 809.316406 435.355469 811.167969 438.191406 C 816.4375 446.273438 813.628906 456.652344 807.515625 463.402344 C 804.355469 466.890625 800.507812 469.628906 796.371094 471.835938 C 791.492188 474.441406 786.320312 476.644531 781.019531 478.222656 C 775.542969 479.851562 769.703125 480.820312 764.011719 479.878906 C 762.617188 479.648438 761.1875 480.242188 760.785156 481.710938 C 760.441406 482.964844 761.210938 484.703125 762.617188 484.9375 " fill-opacity="1" fill-rule="nonzero"/><path fill="#0e0f0e" d="M 814.34375 440.011719 C 819.738281 441.078125 824.410156 444.417969 826.964844 449.328125 C 829.683594 454.5625 829.300781 461.042969 826.410156 466.101562 C 824.730469 469.035156 829.257812 471.683594 830.933594 468.75 C 834.710938 462.136719 835.042969 453.984375 831.710938 447.125 C 828.683594 440.890625 822.496094 436.285156 815.742188 434.953125 C 812.445312 434.300781 811.03125 439.359375 814.34375 440.011719 " fill-opacity="1" fill-rule="nonzero"/><path fill="#0e0f0e" d="M 836.9375 463.78125 C 838.519531 466.871094 839.492188 470.667969 839.011719 474.246094 C 838.378906 478.933594 835.089844 481.9375 830.902344 483.707031 C 829.597656 484.257812 829.304688 486.191406 829.960938 487.296875 C 830.761719 488.644531 832.230469 488.792969 833.542969 488.238281 C 838.910156 485.96875 843.105469 481.515625 844.0625 475.640625 C 844.875 470.652344 843.742188 465.589844 841.464844 461.132812 C 839.929688 458.125 835.40625 460.777344 836.9375 463.78125 " fill-opacity="1" fill-rule="nonzero"/><path fill="#0e0f0e" d="M 802.648438 521.058594 C 806.589844 522.3125 810.808594 523.808594 815.011719 523.578125 C 819.277344 523.339844 822.777344 521.191406 825.371094 517.851562 C 826.246094 516.722656 826.453125 515.242188 825.371094 514.140625 C 824.480469 513.226562 822.535156 513.023438 821.671875 514.140625 C 819.730469 516.640625 817.472656 518.367188 814.214844 518.351562 C 810.746094 518.332031 807.308594 517.039062 804.046875 516 C 800.820312 514.976562 799.445312 520.039062 802.648438 521.058594 " fill-opacity="1" fill-rule="nonzero"/><g clip-path="url(#d4e8db309e)"><path fill="#0e0f0e" d="M 817.222656 510.949219 C 824.859375 512.070312 833.046875 511 839.410156 506.328125 C 845.632812 501.761719 848.492188 493.519531 847.507812 485.972656 C 847.320312 484.570312 846.429688 483.351562 844.890625 483.351562 C 843.613281 483.351562 842.085938 484.558594 842.261719 485.972656 C 843.019531 491.792969 841.34375 498.5625 836.335938 502.109375 C 831.257812 505.703125 824.703125 506.785156 818.613281 505.890625 C 817.21875 505.683594 815.796875 506.238281 815.390625 507.722656 C 815.050781 508.957031 815.8125 510.742188 817.222656 510.949219 " fill-opacity="1" fill-rule="nonzero"/></g><path fill="#0e0f0e" d="M 292.238281 269.566406 C 302.925781 266.621094 314.011719 268.21875 323.421875 274.097656 C 332.1875 279.570312 339.085938 288.230469 342.847656 297.835938 C 344.929688 303.144531 346.136719 308.746094 346.164062 314.457031 C 346.179688 317.832031 351.421875 317.839844 351.402344 314.457031 C 351.292969 291.652344 334.464844 268.460938 311.714844 263.730469 C 304.78125 262.285156 297.660156 262.628906 290.84375 264.511719 C 287.597656 265.402344 288.976562 270.464844 292.238281 269.566406 " fill-opacity="1" fill-rule="nonzero"/><path fill="#0e0f0e" d="M 289.015625 266.335938 C 283.726562 279.648438 284.433594 294.125 290.515625 307.027344 C 294.949219 316.4375 302.066406 325.175781 310.742188 330.980469 C 313.09375 332.550781 316.960938 335.0625 319.957031 333.96875 C 323.097656 332.820312 321.742188 327.746094 318.5625 328.910156 C 317.925781 329.144531 318.855469 328.910156 318.683594 328.933594 C 318.621094 328.9375 318.175781 328.929688 318.179688 328.914062 C 318.1875 328.804688 318.929688 329.109375 318.171875 328.878906 C 317.855469 328.78125 317.539062 328.6875 317.222656 328.582031 C 317.125 328.550781 317.027344 328.507812 316.929688 328.472656 C 316.386719 328.273438 317.488281 328.738281 316.941406 328.476562 C 316.671875 328.34375 316.394531 328.214844 316.125 328.078125 C 315.386719 327.699219 314.667969 327.277344 313.964844 326.828125 C 310.6875 324.730469 307.773438 322.085938 304.921875 319.003906 C 297.574219 311.058594 292.058594 300.800781 290.863281 289.933594 C 290.027344 282.324219 291.25 274.828125 294.066406 267.734375 C 294.589844 266.414062 293.496094 264.851562 292.238281 264.503906 C 290.746094 264.09375 289.539062 265.015625 289.015625 266.335938 " fill-opacity="1" fill-rule="nonzero"/><path fill="#0e0f0e" d="M 302.6875 288.335938 C 311.011719 290.257812 318.867188 294.324219 323.488281 301.695312 C 325.261719 304.519531 326.320312 307.109375 327.199219 310.3125 C 327.578125 311.683594 327.882812 313.074219 328.132812 314.472656 C 328.246094 315.09375 328.34375 315.714844 328.4375 316.34375 C 328.457031 316.492188 328.480469 316.640625 328.5 316.789062 C 328.601562 317.507812 328.453125 316.421875 328.507812 316.859375 C 328.550781 317.175781 328.585938 317.488281 328.625 317.804688 C 328.871094 319.855469 328.894531 322.054688 329.480469 324.046875 C 330.425781 327.277344 335.484375 325.90625 334.53125 322.652344 C 334.449219 322.367188 334.390625 322.078125 334.335938 321.785156 C 334.300781 321.597656 334.277344 321.40625 334.246094 321.21875 C 334.21875 321.046875 334.191406 320.71875 334.285156 321.496094 C 334.265625 321.347656 334.246094 321.203125 334.230469 321.050781 C 334.117188 320.039062 334.007812 319.019531 333.890625 318.003906 C 333.546875 315.078125 333.113281 312.160156 332.359375 309.308594 C 330.375 301.796875 326.269531 295.113281 320.058594 290.382812 C 315.371094 286.808594 309.789062 284.597656 304.082031 283.277344 C 300.796875 282.519531 299.394531 287.578125 302.6875 288.335938 " fill-opacity="1" fill-rule="nonzero"/><path fill="#0e0f0e" d="M 307.671875 290.746094 C 307.289062 296.371094 307.789062 301.917969 310.261719 307.0625 C 313.945312 314.71875 321.34375 319.910156 328.710938 323.636719 C 331.714844 325.15625 334.367188 320.632812 331.355469 319.109375 C 324.71875 315.75 318.109375 311.320312 314.789062 304.414062 C 312.695312 300.058594 312.585938 295.566406 312.914062 290.746094 C 313.140625 287.375 307.902344 287.390625 307.671875 290.746094 " fill-opacity="1" fill-rule="nonzero"/></svg>